# xmcd
#
# Track frame offsets: 
#        150
#        14531
#        30729
#        49314
#        58501
#        72891
#
# Disc length: 1153 seconds
#
# Revision: 0
# Processed by: cddbd v1.5.2PL0 Copyright (c) Steve Scherf et al.
# Submitted via: ExactAudioCopyFreeDBPlugin 1.0
#
DISCID=4e047f06
DTITLE=Crown Lands - Rise Over Run
DYEAR=2017
DGENRE=Electric Blues;Hillside
TTITLE0=Constant Motion
TTITLE1=Misery
TTITLE2=Big River Road
TTITLE3=Leatherman's Blues
TTITLE4=Mountain
TTITLE5=Waterfall
EXTD=
EXTT0=
EXTT1=
EXTT2=
EXTT3=
EXTT4=
EXTT5=
PLAYORDER=
